<svg id="Layer_1" data-name="Layer 1" xmlns="http://www.w3.org/2000/svg" xmlns:xlink="http://www.w3.org/1999/xlink" viewBox="0 0 5688 1648.68"><defs><style>.cls-1{fill:url(#linear-gradient);}.cls-2{fill:url(#linear-gradient-2);}.cls-3{fill:url(#linear-gradient-3);}.cls-4{fill:url(#linear-gradient-4);}.cls-5{fill:url(#linear-gradient-5);}.cls-6{fill:url(#linear-gradient-6);}.cls-7{fill:url(#linear-gradient-7);}.cls-8{fill:url(#linear-gradient-8);}.cls-9{fill:url(#linear-gradient-9);}</style><linearGradient id="linear-gradient" x1="-163.58" y1="1026.69" x2="5938.46" y2="938.37" gradientUnits="userSpaceOnUse"><stop offset="0" stop-color="#2c2e73"/><stop offset="1" stop-color="#bf1f49"/></linearGradient><linearGradient id="linear-gradient-2" x1="-166.7" y1="811.32" x2="5935.34" y2="723" xlink:href="#linear-gradient"/><linearGradient id="linear-gradient-3" x1="-167.26" y1="772.47" x2="5934.78" y2="684.15" xlink:href="#linear-gradient"/><linearGradient id="linear-gradient-4" x1="-145.77" y1="1476.64" x2="5956.27" y2="1388.32" gradientTransform="translate(46.87 -114.26) rotate(2.16)" xlink:href="#linear-gradient"/><linearGradient id="linear-gradient-5" x1="-168.09" y1="714.98" x2="5933.95" y2="626.66" xlink:href="#linear-gradient"/><linearGradient id="linear-gradient-6" x1="-164.9" y1="935.9" x2="5937.14" y2="847.58" xlink:href="#linear-gradient"/><linearGradient id="linear-gradient-7" x1="-165.04" y1="926.27" x2="5937" y2="837.95" xlink:href="#linear-gradient"/><linearGradient id="linear-gradient-8" x1="-158.18" y1="1399.97" x2="5943.86" y2="1311.65" xlink:href="#linear-gradient"/><linearGradient id="linear-gradient-9" x1="4534.34" y1="1864.34" x2="248.41" y2="673.14" xlink:href="#linear-gradient"/></defs><path class="cls-1" d="M5417.48,863c36.1-7.65,69.68-17.12,107.53-8.16-21.87,38.83-37.4,22.07-60.34,37.29-24.54,22.23,15.46,72.37,34.94,81.1,31.63,12.92,95.75,34.24,48.71,66.16-139.88,18.72-127.43-161.94-166.76-86.2-58.68,101.18-163.52,122.13-174.35,57,22.2-61.08,126.14-183.36,184.31-159.82-108.29,88.43-131.81,102.09-132,123.85,52,15.81,104.74-100.68,158-111.24"/><path class="cls-2" d="M4338.48,525.53c39-.33,75.15-11.12,94.84,6.57,28.7,27,3.45,105.52-18.38,123.21-25.24,31.72-58.29,33-59.08,58.69,13.52,87.18,87.53,164,67.5,243.84-49.86,43.71-50.67-59.3-63.8-88.32-9.09-42.4-25.83-77-42.58-116.31-5.2-19.34-4.43-37.55-24.11-46.7-65.78-4.66-68.84-1-108.72-37.25-29.22-36.45,31.33-35.6,50.27-51.29,14.66-7.5,20.2-21.54,35.25-22.58,39.44-6.17,63.84,36.53,83.78,33.76,12.24,2.24,35.09-30,43.43-48.76-34.62-43.36-48.33-15.35-80.28-23,.16-13.87,9.48-22.6,21.88-31.89m-80.15,137.33c22.34-3.57,43.8-8,66.14-11.62-32.75-7.36-67.1-20.47-105.47-10.72,11.62,6.25,23.24,12.51,39.33,22.34"/><path class="cls-3" d="M3989.93,833.29c7.35-59.27,13.23-120.37,34.94-175.78,12.64-39.07,245.65-521.09,236.24-340,.49,15.31-1.35,32.82-17.1,38-43.11,5.39-38.63,57.05-59.41,86.54-55.25,106.69-130.82,255.3-127.91,306.84-8.05,302.76-50.58,388.32,74.3,277.28,36.89-31.26,68.07-64.47,85.92-110.39,10.57-36.85,33.1-75.49,62.14-38.82,7.56,25.57,0,56.6.29,85-4,38.85-1.2,73.65-6.2,112.48-30,79.33-65.58-5.35-72.23-46.85-54.1,64.79-179.68,195.63-213,47.75-4-11.91-8.62-16.51-17.56-18.49-56,1.73-86.26,25.31-122.75-24.19-29.7-59.33-42.94,16.88-63.12,31.89-56.31,46.6-112.54,68-131.1-21.6-4.75-63.86,22.75-120.11,41.29-179.82,21.66-79.18,68.09-86,65.43-37.92-6,47.66-31.42,85.88-45.36,131.93-11.63,24.29-16.17,45.52-8.45,72.68,89.23-18.64,134.1-209.34,169.73-165.57,29.75,40.66-13.94,83.92,2.82,115.25,7.28,13.81,28.34,14.34,46.4,12.34,76.12,3.5,51.66-113.53,64.7-158.54"/><path class="cls-4" d="M1260.44,1492.36c51.49-15.07,101.39-24.45,154.93-26.91,263.81-21.42,524.11-62.29,787.12-92.72,395.36-35.71,789.48-79.85,1186.66-96.29,718,21.2,1249.16,29.32,1496,48.54,117.36,19.19,172.32-40.16,196.62,45.53-3.21,57.09-73.46,42.81-112.6,34.65-99.39-26.52-199-27.29-301-33.31-191.39-13.91-381.72-26.46-573.76-28-274-25.86-440-7.56-564.41-7.07-205.63.07-407.93,1.36-612.64,24.88-119.32,11.24-234.8,24.57-353.33,35.4-80.48-6.46-138.55,12.26-202.83,21.63-93.24,7.65-186,2.72-277.62,22.94-261.22,30.56-521.39,68.44-781.48,106.42-58.93,13.68-123.89-22.83-41.71-55.66"/><path class="cls-5" d="M4619.54,975.3c-16.38-15.3-32.3-51.25-57.6-33-51.78,47.22-110.58,122.7-143,117.39-65.73-25.08-12.39-60.06,23.56-73.39,30.06-18.7,49.54-41.92,78.15-64.27,85.27-62.58,97.07,10.29,150.68,29.55,128.51,42.48,123.24-30,161.7-67,22.73-26.83,56.13-40.13,91.71-43.88-4.81,34.27-79.53,72.76-80.47,92.7,32,10.32,69-16,96.05-31.15,79-47.17,33.39-84.55,44.45-148,19.63-163.11,22.17-224,31.11-246,34.57-104.43,59-213.16,133.84-297.93,30.95-36.56,52.51-70.85,92.09-81.86,29.83-11.64,24.48-6.32,32.35,17.42,72,271.64-146.43,497.31-230.72,738.7-15.64,112.67,76.33,171.64,57.59,255.51-34.23,56.51-76.51-92.85-88.15-110.08-8.51-25.72-1.17-52-12.73-77.68-17.18-55.68-54.6,69.67-146.24,90-57,17.18-55.47-26.61-90.63-36.42-52-16.63-103.83,2.71-143.7-30.6M5043,701.66c-2.39,14.66-6.76,31.59,3.71,46.35,7.75-7.16,14.23-9.87,17.28-22.06,28.4-67.12,69.92-122.2,98.67-188.89,49.11-113.35,94.75-282.86,75.37-352.28-39.64,35.95-68.27,86.81-100,130.58-16,28.11-13.3,61-27.68,90.84-64.87,120.09-57.8,179.35-67.38,295.46"/><path class="cls-6" d="M2614.3,874.08c908.34-163,478.55-382,184.7-287.76-175.54,34.52-357.27,51.27-433.75,96.76-64.67,45.77-61.06,2.14-95.55,14.78-20.59,6.56-57.68,46.44-63.69,12.65,1.71-47.49,42.41-45.75,66.86-52,301.46-63.22,522-141.84,721.85-132.62,169.92-4.13,295.51,132.86,181.18,220.29-46.48,39.34-98.66,68.13-159.41,65.86-17.27-3.39-30.36,6.75-46.23,14.54,22.86,11.86,50.29,11.87,77,13.59,186.79,10.35,381.87,54.46,517.26,189.46,79.92,68.58-95,140.23-136.52,156.43-235.74,51.7-521.65,67.2-672.91,69.31-207.27,3.36-354.19,15.79-449.27,2.14-75.64-12.78-188.44-36.88-201.82-50.43-31.05-22.77-47.07-72.72-15.44-101.66,7.48,6.72,16.06,10.47,17.66,21.1,14.77,72.76,90.77,66.48,147.37,83.37,84.81,19.29,171.37,12.33,257.54,15.37,164.83,2.64,328.42,2.91,491.75-19.69,300.25-38,288.6-37.3,407-80.85,50.59-19.29,151.1-36,76.65-98.1-159.09-128.71-369.33-122.72-561.41-158.05-61.76-3.18-122.34,19.92-183.23,30.68C2541.56,941.55,2622.33,940.06,2593,1010c-18.22,29.65-54.74,24.85-62.84-6.15-33.74-75,9.88-144.16,10.88-222.52,52.55-113.78,60.25,30.54,50.47,75.9-.52,14.47,5.9,19.4,22.8,16.82"/><path class="cls-7" d="M1327.66,881.49c157,29.87,330.3,178.67,355.16,159.71C1731.39,950,1764.65,932,1847.71,913.48c26.21-4.36,67.86-25.29,90-8.45,12.91,10.16,13.47,33.66,9.69,58.29-10.49,97.58-125.53,95.22-185.92,146.58,67.07,13.59,301.24-59.51,306.41-68.2,22.94-10.26,62.74-85.45,74.13-47.13,7,95.1-100.61,106.53-129.05,117.13-67.06,19.3-129.37,40.15-197.51,58.4-87.69,17.48-120.14-22.12-150.77-6.62-78.61,79-140.73,116.26-237.91,124.36-407.92,59.37-859.94,24.51-948,10.29-91.7-13-332.25-77.11-332.28-102.54-26.37-33.88-12.6-68.72,16.53-78.31,18.24-8.17,40.09,12.71,57.44-2.19,1.86,3.34,3.71,6.67,5.2,10-18.8,10.37-56.51,10.19-48.51,37.94,1.78,31.52,78.75,36.48,94.13,46C376,1242.37,480.14,1267,590.58,1268.37c307.48-3.49,768.61,64.34,989.12-106.2,91.1-77.66-72.89-130.16-118.92-175-168.94-109.14-238.11-58.73-327.33-37-64.65,15.26-127.51,16.32-190.74,30.82-61.51,14.72.87,123.07-78.7,104-25.17-12.16-31.46-45.39-39.42-68.69-22.6-56.94,17.49-59.57,24.91-100.13,17.35-63.5,12.44-183.63,66.82-132.74,16.2,41.16-31.58,113-8.85,136.54,69.87,41.66,318.06-70.62,349.42-89.53,121.71-55.89,254.32-93.68,360.14-180.15,72.38-43.14,19.49-54.48-21.47-83.16-61.83-32.54-135.66-25.69-204.2-20.83C1097.08,527.7,947.57,605,727.52,682.22c-76.26,25.21-164.64,92.36-146.23,32.33,96.16-82.74,396.34-162.87,428.26-171.1,101.54-25.48,200.07-53,305.93-48.39,81.82-.42,162.07-9.84,243.22,6.13,63.63,14.36,136.08,51.78,169.82,91.56,17,31-18.92,56.38-38.9,77.88-78.08,78.82-158.6,91.78-230,120.26-75.61,29.64-145.05,58.09-224.3,73.54,22.77,20.17,62,10.91,92.32,17.06m559.9,79.72c-56.1-57.1-154.46,101.68-185,104.19,60.52,14.63,170.41-69.31,185-104.19"/><path class="cls-8" d="M5572.12,1296.78c5.82,142.41-213.88,202-295.65,195.6-54.87.33-92.87-33.43-118.2-68.29-30.93-53.86,13-113.47,48.46-156.59,28.82-28.08,68.68-43.54,102.05-68.9-9.18-56.2,62.08-52,99-48.8C5508.81,1156.19,5570.63,1269.37,5572.12,1296.78Zm-47.26,10c-1.08-66.21-92.65-117.66-136.42-119.13,23.25,16.79,47.92,33.46,22.9,63.83-61.24-72.4-244.91,79-208.7,149C5248.41,1506.25,5541.23,1413,5524.86,1306.77Zm-51.65,68c-23.44,48.14-81.33-11.52-117.9-13.16,9,60-63.81,88.45-51.4-28.39,6.17-44-31.14-32-4.43-61.08,109.44-44.81,177.08,45.23,105.53,63.65C5426.73,1346,5474.31,1354.69,5473.21,1374.74Zm-125-70.65c0,5.47.29,16,1,23.63,9.81-5.23,25.13-12.35,39-18.76C5385.09,1293.64,5363.81,1297.41,5348.24,1304.09Z"/><path class="cls-9" d="M543.6,792.83c-17.07-8.21-21.33-21-21-38.06,0-16.08,8.2-25.27,20-33.14,9.84-6.56,14.44-.33,16.08,8.2,3.61,17.39,13.78,29.2,28.54,38.72,5.58,3.28,8.2,11.48,11.81,17.71.33.66-1.64,3.29-2.62,4.6-16.73,16.07-34.45,7.87-52.82,2"/></svg>