<svg id="Layer_1" data-name="Layer 1" xmlns="http://www.w3.org/2000/svg" xmlns:xlink="http://www.w3.org/1999/xlink" viewBox="0 0 5688 1440"><defs><style>.cls-1{fill:url(#linear-gradient);}.cls-2{fill:url(#linear-gradient-2);}.cls-3{fill:url(#linear-gradient-3);}.cls-4{fill:url(#linear-gradient-4);}.cls-5{fill:url(#linear-gradient-5);}.cls-6{fill:url(#linear-gradient-6);}.cls-7{fill:url(#linear-gradient-7);}.cls-8{fill:url(#linear-gradient-8);}.cls-9{fill:url(#linear-gradient-9);}</style><linearGradient id="linear-gradient" x1="464.69" y1="827.58" x2="5222.95" y2="758.71" gradientUnits="userSpaceOnUse"><stop offset="0" stop-color="#2c2e73"/><stop offset="1" stop-color="#bf1f49"/></linearGradient><linearGradient id="linear-gradient-2" x1="462.26" y1="659.64" x2="5220.52" y2="590.77" xlink:href="#linear-gradient"/><linearGradient id="linear-gradient-3" x1="461.82" y1="629.35" x2="5220.08" y2="560.48" xlink:href="#linear-gradient"/><linearGradient id="linear-gradient-4" x1="469.81" y1="1181.61" x2="5228.07" y2="1112.74" gradientTransform="translate(46.87 -114.26) rotate(2.16)" xlink:href="#linear-gradient"/><linearGradient id="linear-gradient-5" x1="461.17" y1="584.51" x2="5219.43" y2="515.64" xlink:href="#linear-gradient"/><linearGradient id="linear-gradient-6" x1="463.66" y1="756.78" x2="5221.93" y2="687.91" xlink:href="#linear-gradient"/><linearGradient id="linear-gradient-7" x1="463.56" y1="749.27" x2="5221.82" y2="680.4" xlink:href="#linear-gradient"/><linearGradient id="linear-gradient-8" x1="468.9" y1="1118.66" x2="5227.16" y2="1049.79" xlink:href="#linear-gradient"/><linearGradient id="linear-gradient-9" x1="4128.05" y1="1480.76" x2="785.96" y2="551.89" xlink:href="#linear-gradient"/></defs><path class="cls-1" d="M4816.7,699.9c28.15-6,54.34-13.35,83.85-6.36-17.05,30.28-29.16,17.21-47.05,29.07-19.14,17.34,12.05,56.44,27.24,63.24,24.67,10.08,74.67,26.7,38,51.6-109.08,14.59-99.37-126.28-130-67.22-45.76,78.89-127.51,95.23-136,44.46,17.32-47.63,98.37-143,143.73-124.62-84.44,68.95-102.79,79.6-102.93,96.57,40.58,12.33,81.67-78.51,123.17-86.74"/><path class="cls-2" d="M3975.31,436.79c30.45-.26,58.61-8.68,74,5.12,22.38,21,2.69,82.28-14.33,96.08-19.68,24.73-45.46,25.74-46.07,45.76,10.54,68,68.25,127.88,52.63,190.14C4002.62,808,4002,727.65,3991.75,705c-7.08-33.06-20.14-60.07-33.2-90.69-4.05-15.09-3.45-29.29-18.8-36.42-51.3-3.63-53.68-.81-84.78-29-22.78-28.42,24.44-27.76,39.2-40,11.43-5.85,15.76-16.79,27.49-17.6,30.75-4.82,49.78,28.48,65.33,26.33,9.55,1.74,27.36-23.41,33.87-38-27-33.81-37.69-12-62.61-17.91.13-10.81,7.4-17.62,17.06-24.86m-62.5,107.08c17.43-2.78,34.16-6.27,51.58-9.06-25.54-5.74-52.32-16-82.24-8.36,9.06,4.88,18.12,9.76,30.66,17.42"/><path class="cls-3" d="M3703.53,676.77c5.72-46.22,10.31-93.86,27.24-137.07,9.85-30.46,191.55-406.34,184.21-265.14.39,11.94-1.05,25.59-13.33,29.66-33.62,4.2-30.13,44.49-46.32,67.48-43.09,83.2-102,199.08-99.75,239.27-6.28,236.09-39.44,302.81,57.94,216.22,28.76-24.37,53.08-50.28,67-86.08,8.24-28.73,25.81-58.87,48.45-30.27,5.9,19.94,0,44.13.23,66.26-3.14,30.29-.94,57.42-4.84,87.7-23.37,61.87-51.13-4.17-56.32-36.52-42.19,50.51-140.11,152.54-166.1,37.22-3.13-9.28-6.72-12.86-13.7-14.41-43.68,1.35-67.26,19.74-95.71-18.87-23.16-46.25-33.48,13.17-49.22,24.87-43.91,36.34-87.76,53-102.23-16.84-3.7-49.8,17.74-93.66,32.2-140.22,16.88-61.74,53.09-67,51-29.57-4.7,37.16-24.5,67-35.37,102.88-9.07,18.94-12.62,35.5-6.59,56.67,69.58-14.54,104.57-163.24,132.35-129.11,23.19,31.71-10.87,65.44,2.2,89.88,5.67,10.76,22.1,11.17,36.18,9.62,59.36,2.73,40.28-88.53,50.46-123.63"/><path class="cls-4" d="M1575.12,1190.7c40.14-11.75,79.06-19.07,120.8-21,205.72-16.69,408.7-48.57,613.79-72.29,308.29-27.85,615.62-62.27,925.34-75.09,559.92,16.53,974.06,22.86,1166.55,37.85,91.52,15,134.38-31.32,153.33,35.5-2.51,44.52-57.28,33.39-87.81,27-77.5-20.68-155.19-21.28-234.68-26-149.24-10.85-297.66-20.63-447.41-21.86-213.63-20.16-343.13-5.9-440.11-5.51-160.35.05-318.1,1.06-477.73,19.4-93,8.77-183.09,19.16-275.52,27.61-62.76-5-108,9.56-158.16,16.86-72.71,6-145,2.12-216.49,17.89-203.69,23.83-406.57,53.36-609.38,83-46,10.67-96.6-17.8-32.52-43.4"/><path class="cls-5" d="M4194.48,787.51c-12.77-11.93-25.19-40-44.92-25.72-40.37,36.83-86.22,95.68-111.53,91.54-51.26-19.55-9.67-46.83,18.37-57.22,23.44-14.59,38.62-32.69,60.94-50.12,66.49-48.79,75.69,8,117.49,23,100.22,33.13,96.11-23.41,126.1-52.27,17.72-20.91,43.76-31.29,71.51-34.21-3.75,26.72-62,56.73-62.75,72.28,24.92,8,53.77-12.45,74.9-24.29,61.63-36.78,26-65.93,34.66-115.42,15.31-127.18,17.29-174.63,24.26-191.81,27-81.43,46-166.21,104.36-232.31,24.14-28.51,40.95-55.25,71.81-63.83,23.27-9.08,19.09-4.93,25.23,13.58,56.14,211.82-114.18,387.79-179.91,576-12.2,87.86,59.52,133.85,44.9,199.25-26.69,44.06-59.65-72.41-68.73-85.84-6.64-20.06-.91-40.54-9.92-60.58-13.4-43.42-42.58,54.33-114,70.17-44.47,13.39-43.26-20.75-70.68-28.41-40.56-13-81,2.12-112.05-23.85m330.19-213.38c-1.86,11.43-5.27,24.63,2.89,36.14,6-5.58,11.1-7.7,13.48-17.2,22.14-52.34,54.52-95.29,76.94-147.3,38.3-88.38,73.88-220.56,58.78-274.7-30.92,28-53.24,67.7-78,101.83-12.47,21.92-10.38,47.59-21.59,70.83-50.58,93.65-45.07,139.86-52.54,230.4"/><path class="cls-6" d="M2630.83,708.57c708.31-127.1,373.17-297.84,144-224.38-136.89,26.92-278.6,40-338.23,75.45-50.43,35.69-47.62,1.67-74.51,11.52-16.06,5.12-45,36.22-49.67,9.87,1.34-37,33.08-35.68,52.14-40.53,235.07-49.3,407.06-110.6,562.89-103.41,132.5-3.22,230.43,103.6,141.27,171.78-36.23,30.68-76.93,53.12-124.3,51.35-13.46-2.64-23.67,5.26-36,11.34,17.82,9.25,39.22,9.26,60,10.59,145.66,8.08,297.78,42.48,403.36,147.75,62.32,53.47-74.05,109.35-106.46,122-183.83,40.32-406.78,52.41-524.73,54-161.62,2.63-276.19,12.32-350.33,1.67-59-10-146.94-28.76-157.37-39.32-24.22-17.76-36.71-56.71-12-79.28,5.83,5.25,12.52,8.17,13.77,16.46,11.51,56.73,70.78,51.84,114.91,65,66.14,15,133.63,9.61,200.83,12,128.53,2.06,256.09,2.27,383.46-15.35,234.13-29.63,225-29.09,317.37-63,39.46-15,117.83-28,59.78-76.5-124.06-100.37-288-95.69-437.78-123.25-48.16-2.47-95.4,15.53-142.88,23.93-156.19,33-93.21,31.79-116.09,86.36-14.2,23.12-42.68,19.38-49-4.8-26.31-58.47,7.71-112.41,8.48-173.52,41-88.72,47,23.82,39.36,59.19-.4,11.28,4.6,15.13,17.78,13.11"/><path class="cls-7" d="M1627.53,714.36c122.41,23.28,257.56,139.32,277,124.53,37.87-71.13,63.81-85.12,128.58-99.59,20.44-3.4,52.92-19.72,70.18-6.59,10.07,7.92,10.51,26.25,7.56,45.45-8.18,76.09-97.88,74.25-145,114.3,52.3,10.6,234.91-46.4,238.94-53.18,17.89-8,48.92-66.63,57.8-36.75,5.47,74.16-78.45,83.07-100.62,91.34-52.3,15-100.88,31.3-154,45.54-68.38,13.63-93.69-17.25-117.57-5.16-61.3,61.63-109.74,90.65-185.52,97-318.08,46.3-670.57,19.11-739.23,8-71.5-10.1-259.08-60.13-259.11-80-20.56-26.42-9.82-53.58,12.89-61.06,14.22-6.37,31.26,9.91,44.8-1.71,1.44,2.6,2.89,5.21,4,7.81-14.65,8.09-44.05,7.94-37.82,29.59,1.39,24.57,61.41,28.44,73.4,35.9,81.6,26,162.85,45.12,249,46.22,239.77-2.71,599.35,50.18,771.3-82.8,71-60.56-56.84-101.5-92.73-136.47-131.74-85.11-185.68-45.8-255.25-28.85-50.41,11.9-99.43,12.73-148.73,24-48,11.49.67,96-61.37,81.09-19.63-9.48-24.54-35.39-30.74-53.56-17.62-44.4,13.64-46.45,19.42-78.08,13.53-49.51,9.7-143.19,52.11-103.51,12.63,32.1-24.63,88.15-6.91,106.47,54.49,32.49,248-55.06,272.48-69.81,94.9-43.58,198.31-73,280.83-140.48,56.44-33.64,15.19-42.48-16.75-64.85-48.21-25.37-105.78-20-159.23-16.24-229.47-14.49-346,45.78-517.65,106-59.46,19.65-128.38,72-114,25.21,75-64.52,309-127,334-133.42,79.18-19.87,156-41.34,238.55-37.74,63.81-.33,126.38-7.67,189.66,4.79,49.62,11.19,106.12,40.37,132.43,71.39,13.29,24.15-14.76,44-30.34,60.73-60.89,61.47-123.67,71.57-179.34,93.78-59,23.11-113.1,45.3-174.9,57.35,17.76,15.72,48.35,8.5,72,13.3m436.6,62.16c-43.75-44.53-120.44,79.28-144.28,81.25,47.19,11.4,132.88-54,144.28-81.25"/><path class="cls-8" d="M4937.29,1038.19c4.54,111-166.79,157.51-230.55,152.53-42.79.26-72.42-26.07-92.17-53.25-24.12-42,10.16-88.48,37.79-122.11,22.47-21.9,53.56-34,79.58-53.72-7.16-43.83,48.4-40.59,77.19-38.06C4887.92,928.56,4936.12,1016.82,4937.29,1038.19Zm-36.86,7.79c-.84-51.63-72.24-91.75-106.38-92.89,18.14,13.09,37.37,26.09,17.86,49.77-47.75-56.45-191,61.63-162.73,116.2C4684.86,1201.53,4913.2,1128.78,4900.43,1046Zm-40.27,53c-18.28,37.54-63.42-9-91.94-10.26,7,46.8-49.76,69-40.08-22.14,4.81-34.34-24.28-25-3.46-47.63,85.35-34.94,138.09,35.27,82.3,49.64C4823.91,1076.55,4861,1083.35,4860.16,1099Zm-97.45-55.09c0,4.27.23,12.45.76,18.43,7.65-4.08,19.6-9.63,30.39-14.63C4791.44,1035.74,4774.85,1038.68,4762.71,1043.89Z"/><path class="cls-9" d="M1016.13,645.22c-13.3-6.4-16.63-16.38-16.37-29.68,0-12.54,6.4-19.7,15.61-25.84,7.67-5.12,11.25-.26,12.53,6.4,2.82,13.55,10.75,22.77,22.26,30.18,4.35,2.56,6.4,9,9.21,13.82.26.51-1.28,2.56-2,3.58-13,12.54-26.86,6.14-41.19,1.54"/></svg>