<svg id="Layer_1" data-name="Layer 1" xmlns="http://www.w3.org/2000/svg" viewBox="0 0 4032 1440"><defs><style>.cls-1{fill:#fff;}.cls-2{fill:#939598;}</style></defs><title>BeBulinda[Credits]</title><path class="cls-1" d="M2675.66,1070.26v34.55c3.67-6.46,13.92-10,20.5-10,18.22,0,31.76,11.14,31.76,32.65,0,20.5-13.79,32.64-32.14,32.64-7.59,0-15.31-2.53-20.12-10l-1,8.6h-14.43v-88.45Zm1,57.2c0,11.26,8.35,18.35,18.1,18.35s17.71-7.47,17.71-18.35c0-11.26-7.84-18.22-17.71-18.22A17.8,17.8,0,0,0,2676.67,1127.46Z"/><path class="cls-1" d="M2752.47,1133c1,7.71,7.72,13.28,18.61,13.28,5.69,0,13.16-2.15,16.7-5.82l9.87,9.74c-6.58,6.84-17.34,10.13-26.83,10.13-21.51,0-34.29-13.29-34.29-33.28,0-19,12.91-32.65,33.15-32.65,20.88,0,33.92,12.91,31.51,38.6Zm33.92-12.79c-1-8.09-7.34-12.14-16.2-12.14-8.35,0-15.19,4.05-17.46,12.14Z"/><path class="cls-1" d="M2827.26,1070.13v34.68c5.57-7.22,12.4-9.37,19.49-9.37,17.72,0,25.56,12,25.56,30.37v32.9h-15.44v-32.77c0-11.39-5.94-16.2-14.17-16.2-9.11,0-15.44,7.72-15.44,17.08v31.89h-15.43v-88.58Z"/><path class="cls-1" d="M2934.83,1096.33h14.8v62.38h-14.55l-.76-9.11c-3.54,7.34-13.29,10.88-20.25,11-18.47.13-32.14-11.26-32.14-33.15,0-21.51,14.3-32.78,32.52-32.65,8.35,0,16.33,3.92,19.87,10.12Zm-37.46,31.13c0,11.89,8.23,19,18.47,19,24.3,0,24.3-37.84,0-37.84C2905.6,1108.6,2897.37,1115.56,2897.37,1127.46Z"/><path class="cls-1" d="M3008.6,1158.71v-32.64c0-9.5-5.19-16.71-15.06-16.71-9.49,0-15.94,8-15.94,17.46v31.89h-15.31V1096.2h13.79l1,8.48c6.33-6.2,12.66-9.36,20.5-9.36,14.68,0,26.45,11,26.45,30.62v32.77Z"/><path class="cls-1" d="M3090.86,1150.74c-7.22,7.09-14.81,9.87-24.05,9.87-18.09,0-33.15-10.88-33.15-33s15.06-33,33.15-33c8.86,0,15.7,2.53,22.53,9.23l-9.75,10.25a18.93,18.93,0,0,0-12.52-4.93c-10.38,0-18,7.59-18,18.47,0,11.9,8.1,18.23,17.71,18.23,4.94,0,9.87-1.4,13.67-5.19Z"/><path class="cls-1" d="M3113.38,1133c1,7.71,7.72,13.28,18.6,13.28,5.7,0,13.16-2.15,16.71-5.82l9.87,9.74c-6.58,6.84-17.34,10.13-26.83,10.13-21.51,0-34.29-13.29-34.29-33.28,0-19,12.9-32.65,33.15-32.65,20.88,0,33.91,12.91,31.51,38.6Zm33.91-12.79c-1-8.09-7.33-12.14-16.19-12.14-8.35,0-15.19,4.05-17.47,12.14Z"/><path class="cls-1" d="M3191.84,1150.74c0,12-18.22,12-18.22,0S3191.84,1138.72,3191.84,1150.74Z"/><path class="cls-1" d="M3250.55,1158.71v-32.64c0-9.5-5.18-16.71-15.05-16.71-9.49,0-15.95,8-15.95,17.46v31.89h-15.31V1096.2H3218l1,8.48c6.32-6.2,12.65-9.36,20.5-9.36,14.67,0,26.44,11,26.44,30.62v32.77Z"/><path class="cls-1" d="M3292.44,1133c1,7.71,7.72,13.28,18.6,13.28,5.7,0,13.16-2.15,16.71-5.82l9.87,9.74c-6.58,6.84-17.34,10.13-26.83,10.13-21.51,0-34.29-13.29-34.29-33.28,0-19,12.91-32.65,33.15-32.65,20.88,0,33.92,12.91,31.51,38.6Zm33.92-12.79c-1-8.09-7.34-12.14-16.2-12.14-8.35,0-15.19,4.05-17.46,12.14Z"/><path class="cls-1" d="M3372.17,1078.74v17.72h17.21v13.28H3372v27c0,6,3.29,8.86,8.1,8.86a17.59,17.59,0,0,0,7.46-1.9l4.31,13.16a34.2,34.2,0,0,1-12.78,2.66c-13.54.51-22.4-7.21-22.4-22.78v-27h-11.64v-13.28h11.64v-16.08Z"/><path class="cls-1" d="M3452.65,1061.78l-42.27,107.31h-16.07l42.14-107.31Z"/><path class="cls-1" d="M3478.84,1070.26v34.55c3.67-6.46,13.92-10,20.5-10,18.22,0,31.76,11.14,31.76,32.65,0,20.5-13.79,32.64-32.14,32.64-7.59,0-15.31-2.53-20.12-10l-1,8.6H3463.4v-88.45Zm1,57.2c0,11.26,8.35,18.35,18.1,18.35s17.71-7.47,17.71-18.35c0-11.26-7.84-18.22-17.71-18.22A17.8,17.8,0,0,0,3479.85,1127.46Z"/><path class="cls-1" d="M3558.31,1096.33V1129c0,9.49,5.19,16.7,15.06,16.7,9.49,0,15.94-8,15.94-17.46v-31.89h15.32v62.51h-13.8l-1-8.48c-6.45,6.33-12.4,9.37-21.13,9.37-14.93,0-25.82-11.27-25.82-30.63v-32.77Z"/><path class="cls-1" d="M3633.61,1070.26v88.45H3618.3v-88.45Z"/><path class="cls-1" d="M3664,1078.74c0,12-18.22,12-18.22,0S3664,1066.72,3664,1078.74Zm-16.83,17.34v62.63h15.44v-62.63Z"/><path class="cls-1" d="M3722.44,1158.71v-32.64c0-9.5-5.19-16.71-15.06-16.71-9.49,0-15.94,8-15.94,17.46v31.89h-15.31V1096.2h13.79l1,8.48c6.33-6.2,12.66-9.36,20.5-9.36,14.68,0,26.45,11,26.45,30.62v32.77Z"/><path class="cls-1" d="M3816,1070.26v88.45h-14.43l-1-8.6c-4.81,7.46-12.53,10-20.12,10-18.35,0-32.14-12.14-32.14-32.64,0-21.51,13.54-32.65,31.76-32.65,6.58,0,16.83,3.54,20.5,10v-34.55Zm-52.26,57.2c0,10.88,7.84,18.35,17.71,18.35s18.1-7.09,18.1-18.35a17.8,17.8,0,0,0-18.1-18.22C3771.54,1109.24,3763.7,1116.2,3763.7,1127.46Z"/><path class="cls-1" d="M3878.85,1096.33h14.81v62.38H3879.1l-.75-9.11c-3.55,7.34-13.29,10.88-20.25,11-18.48.13-32.14-11.26-32.14-33.15,0-21.51,14.3-32.78,32.52-32.65,8.35,0,16.32,3.92,19.87,10.12Zm-37.45,31.13c0,11.89,8.22,19,18.47,19,24.3,0,24.3-37.84,0-37.84C3849.62,1108.6,3841.4,1115.56,3841.4,1127.46Z"/><path class="cls-1" d="M553.73,1128.79C314,1128.79,119,933.77,119,694.05S314,259.32,553.73,259.32s434.73,195,434.73,434.73S793.44,1128.79,553.73,1128.79Zm0-855.72c-232.13,0-421,188.85-421,421s188.85,421,421,421,421-188.85,421-421S785.86,273.07,553.73,273.07Zm0,774.55c-195,0-353.56-158.61-353.56-353.57s158.6-353.56,353.56-353.56S907.29,499.1,907.29,694.05,748.69,1047.62,553.73,1047.62Zm0-693.38c-187.37,0-339.82,152.44-339.82,339.81s152.45,339.82,339.82,339.82S893.55,881.43,893.55,694.05,741.11,354.24,553.73,354.24Z"/><path class="cls-2" d="M564.52,635.69c0,21.93-10.56,43-37,54.82C560.86,700.66,573,736,573,753.86c0,63.35-47.51,83.66-106.39,83.66H331.82V553.25H466.65C522.69,553.25,564.52,578.43,564.52,635.69ZM384.61,667.36h82c33.7,0,44.67-14.21,44.67-30.45,0-13-10.56-34.93-44.67-34.93h-82Zm0,120.21h82c21.92,0,53.19-7.31,53.19-34.11,0-25.59-31.27-39-53.19-39h-82Z"/><path class="cls-2" d="M649.39,755.08c3.25,24.77,24.77,42.64,59.69,42.64,18.28,0,42.24-6.9,53.61-18.68l31.67,31.27c-21.11,21.93-55.63,32.49-86.09,32.49-69,0-110-42.64-110-106.8,0-60.92,41.42-104.78,106.4-104.78,67,0,108.83,41.42,101.12,123.86Zm108.83-41c-3.25-26-23.55-39-52-39-26.8,0-48.73,13-56,39Z"/><rect class="cls-2" x="629.29" y="574.93" width="146.43" height="41.87"/><path class="cls-1" d="M972,1028l297.34-670.39h43L1014.27,1028Z"/><path class="cls-1" d="M1470.87,468.2V671c21.55-37.89,81.72-58.7,120.36-58.7,107,0,186.47,65.38,186.47,191.68,0,120.36-81,191.68-188.7,191.68-44.58,0-89.9-14.86-118.13-58.69l-5.94,50.52h-84.7V468.2ZM1476.81,804c0,66.12,49,107.73,106.24,107.73,58,0,104-43.84,104-107.73,0-66.12-46.07-107-104-107C1525.85,697,1476.81,740.12,1476.81,804Z"/><path class="cls-1" d="M1937.43,621.25V812.93c0,55.72,30.46,98.06,88.41,98.06,55.72,0,93.61-46.8,93.61-102.52V621.25h89.9v367h-81l-5.95-49.78c-37.88,37.15-72.8,55-124.07,55-87.66,0-151.55-66.12-151.55-179.79V621.25Z"/><path class="cls-1" d="M2379.48,468.2V987.52h-89.9V468.2Z"/><path class="cls-1" d="M2557.78,518c0,70.58-107,70.58-107,0S2557.78,447.4,2557.78,518ZM2459,619.76V987.52h90.64V619.76Z"/><path class="cls-1" d="M2901,987.52V795.84c0-55.72-30.46-98.07-88.41-98.07-55.72,0-93.61,46.81-93.61,102.53V987.52H2629.1v-367h81l5.94,49.77c37.15-36.4,74.3-55,120.36-55,86.18,0,155.27,64.63,155.27,179.79V987.52Z"/><path class="cls-1" d="M3450,468.2V987.52h-84.7L3359.4,937c-28.23,43.83-73.55,58.69-118.13,58.69-107.72,0-188.7-71.32-188.7-191.68,0-126.3,79.49-191.68,186.47-191.68,38.64,0,98.82,20.81,120.36,58.7V468.2ZM3143.21,804c0,63.89,46.06,107.73,104,107.73,57.2,0,106.24-41.61,106.24-107.73,0-63.89-49-107-106.24-107C3189.27,697,3143.21,737.89,3143.21,804Z"/><path class="cls-1" d="M3819.27,621.25h86.93V987.52h-85.44L3816.3,934c-20.8,43.09-78,63.9-118.87,64.64-108.47.74-188.7-66.12-188.7-194.65,0-126.3,83.95-192.42,190.93-191.68,49,0,95.84,23,116.64,59.44ZM3599.37,804c0,69.84,48.29,111.44,108.46,111.44,142.65,0,142.65-222.14,0-222.14C3647.66,693.31,3599.37,734.17,3599.37,804Z"/><path class="cls-1" d="M3791.38,320.9H3764.7v-5.06h59.05v5.06h-26.68v68.65h-5.69Z"/><path class="cls-1" d="M3898.94,324l-28.26,43.23h-1.9L3840.3,324v65.59h-5.69V315.73h6.75l28.26,43,28-43h7v73.82h-5.59Z"/></svg>