<svg id="Layer_1" data-name="Layer 1" xmlns="http://www.w3.org/2000/svg" viewBox="0 0 371 98"><defs><style>.cls-1{fill:#fff;}.cls-2{fill:#939598;}</style></defs><title>BeBulinda[Credits]</title><path class="cls-1" d="M247.33,81.35v3.27a2.46,2.46,0,0,1,1.94-1,2.83,2.83,0,0,1,3,3.1,2.89,2.89,0,0,1-3,3.09,2.16,2.16,0,0,1-1.91-1l-.1.82h-1.36V81.35Zm.1,5.42a1.68,1.68,0,0,0,1.71,1.74,1.66,1.66,0,0,0,1.68-1.74A1.63,1.63,0,0,0,249.14,85,1.69,1.69,0,0,0,247.43,86.77Z"/><path class="cls-1" d="M254.61,87.29a1.58,1.58,0,0,0,1.77,1.26A2.41,2.41,0,0,0,258,88l.94.93a3.7,3.7,0,0,1-2.55,1,3.13,3.13,0,1,1-.1-6.25c2,0,3.21,1.22,3,3.65Zm3.22-1.21a1.37,1.37,0,0,0-1.54-1.15,1.59,1.59,0,0,0-1.65,1.15Z"/><path class="cls-1" d="M261.71,81.33v3.29a2.18,2.18,0,0,1,1.84-.89c1.68,0,2.43,1.14,2.43,2.88v3.12h-1.47V86.62c0-1.08-.56-1.53-1.34-1.53a1.51,1.51,0,0,0-1.46,1.62v3h-1.47v-8.4Z"/><path class="cls-1" d="M271.9,83.82h1.41v5.91h-1.38l-.07-.86a2.26,2.26,0,0,1-1.92,1,3.12,3.12,0,0,1,0-6.24,2.19,2.19,0,0,1,1.89,1Zm-3.55,3a1.7,1.7,0,0,0,1.76,1.8,1.8,1.8,0,0,0,0-3.59A1.69,1.69,0,0,0,268.35,86.77Z"/><path class="cls-1" d="M278.9,89.73V86.64a1.42,1.42,0,0,0-1.43-1.59A1.56,1.56,0,0,0,276,86.71v3h-1.45V83.8h1.31l.09.81a2.67,2.67,0,0,1,1.95-.89c1.39,0,2.5,1,2.5,2.9v3.11Z"/><path class="cls-1" d="M286.7,89a3,3,0,0,1-2.28.94,3.13,3.13,0,1,1,0-6.26,2.84,2.84,0,0,1,2.14.87l-.93,1a1.74,1.74,0,0,0-1.18-.47,1.67,1.67,0,0,0-1.71,1.75,1.61,1.61,0,0,0,1.68,1.73,1.79,1.79,0,0,0,1.3-.5Z"/><path class="cls-1" d="M288.84,87.29c.09.74.73,1.26,1.76,1.26a2.41,2.41,0,0,0,1.58-.55l.94.93a3.65,3.65,0,0,1-2.54,1,3.13,3.13,0,1,1-.11-6.25c2,0,3.21,1.22,3,3.65Zm3.21-1.21a1.35,1.35,0,0,0-1.53-1.15,1.61,1.61,0,0,0-1.66,1.15Z"/><path class="cls-1" d="M296.28,89a.87.87,0,0,1-1.73,0A.87.87,0,0,1,296.28,89Z"/><path class="cls-1" d="M301.84,89.73V86.64a1.41,1.41,0,0,0-1.42-1.59,1.56,1.56,0,0,0-1.51,1.66v3h-1.46V83.8h1.31l.1.81a2.66,2.66,0,0,1,1.94-.89c1.39,0,2.51,1,2.51,2.9v3.11Z"/><path class="cls-1" d="M305.82,87.29c.09.74.73,1.26,1.76,1.26a2.41,2.41,0,0,0,1.58-.55l.94.93a3.65,3.65,0,0,1-2.54,1,3.13,3.13,0,1,1-.11-6.25c2,0,3.21,1.22,3,3.65ZM309,86.08a1.35,1.35,0,0,0-1.53-1.15,1.61,1.61,0,0,0-1.66,1.15Z"/><path class="cls-1" d="M313.38,82.15v1.68H315v1.26h-1.64v2.55c0,.57.31.84.76.84a1.62,1.62,0,0,0,.71-.18l.41,1.25a3.2,3.2,0,0,1-1.21.25,1.91,1.91,0,0,1-2.13-2.16V85.09h-1.1V83.83h1.1V82.31Z"/><path class="cls-1" d="M321,80.54l-4,10.17h-1.52l4-10.17Z"/><path class="cls-1" d="M323.49,81.35v3.27a2.46,2.46,0,0,1,1.95-1,2.84,2.84,0,0,1,3,3.1,2.9,2.9,0,0,1-3.05,3.09,2.16,2.16,0,0,1-1.91-1l-.09.82H322V81.35Zm.1,5.42a1.68,1.68,0,0,0,1.71,1.74A1.66,1.66,0,0,0,327,86.77,1.63,1.63,0,0,0,325.3,85,1.69,1.69,0,0,0,323.59,86.77Z"/><path class="cls-1" d="M331,83.82v3.09a1.41,1.41,0,0,0,1.43,1.58A1.55,1.55,0,0,0,334,86.84v-3h1.45v5.92h-1.31l-.09-.8a2.66,2.66,0,0,1-2,.89c-1.41,0-2.44-1.07-2.44-2.91v-3.1Z"/><path class="cls-1" d="M338.17,81.35v8.38h-1.45V81.35Z"/><path class="cls-1" d="M341.05,82.15a.87.87,0,0,1-1.73,0A.87.87,0,0,1,341.05,82.15Zm-1.6,1.64v5.94h1.47V83.79Z"/><path class="cls-1" d="M346.59,89.73V86.64a1.42,1.42,0,0,0-1.43-1.59,1.56,1.56,0,0,0-1.51,1.66v3H342.2V83.8h1.31l.1.81a2.64,2.64,0,0,1,1.94-.89c1.39,0,2.5,1,2.5,2.9v3.11Z"/><path class="cls-1" d="M355.46,81.35v8.38h-1.37l-.09-.82a2.16,2.16,0,0,1-1.91,1,2.9,2.9,0,0,1-3-3.09,2.84,2.84,0,0,1,3-3.1,2.46,2.46,0,0,1,1.95,1V81.35Zm-5,5.42a1.7,1.7,0,1,0,3.4,0A1.69,1.69,0,0,0,352.18,85,1.64,1.64,0,0,0,350.5,86.77Z"/><path class="cls-1" d="M361.42,83.82h1.41v5.91h-1.38l-.07-.86a2.26,2.26,0,0,1-1.92,1,3.12,3.12,0,0,1,0-6.24,2.19,2.19,0,0,1,1.89,1Zm-3.55,3a1.7,1.7,0,0,0,1.75,1.8,1.8,1.8,0,0,0,0-3.59A1.68,1.68,0,0,0,357.87,86.77Z"/><path class="cls-1" d="M46.12,86.74A41.07,41.07,0,1,1,87.19,45.67,41.13,41.13,0,0,1,46.12,86.74Zm0-81.14A40.07,40.07,0,1,0,86.19,45.67,40.12,40.12,0,0,0,46.12,5.6Zm0,73.44A33.38,33.38,0,1,1,79.49,45.67,33.41,33.41,0,0,1,46.12,79Zm0-65.75A32.38,32.38,0,1,0,78.49,45.67,32.41,32.41,0,0,0,46.12,13.29Z"/><path class="cls-2" d="M47.14,40.13a5.49,5.49,0,0,1-3.5,5.2c3.15,1,4.31,4.31,4.31,6,0,6-4.51,7.93-10.09,7.93H25.07v-27H37.86C43.17,32.31,47.14,34.7,47.14,40.13Zm-17.06,3h7.78c3.2,0,4.24-1.34,4.24-2.88,0-1.24-1-3.32-4.24-3.32H30.08Zm0,11.4h7.78c2.08,0,5-.69,5-3.23s-3-3.7-5-3.7H30.08Z"/><path class="cls-2" d="M55.19,51.45c.31,2.35,2.35,4,5.66,4a7.82,7.82,0,0,0,5.08-1.78l3,3a11.68,11.68,0,0,1-8.17,3.08c-6.55,0-10.44-4-10.44-10.13,0-5.77,3.93-9.93,10.1-9.93,6.35,0,10.32,3.92,9.58,11.74Zm10.32-3.89c-.31-2.46-2.23-3.69-4.93-3.69a5.13,5.13,0,0,0-5.32,3.69Z"/><rect class="cls-2" x="53.28" y="34.37" width="13.89" height="3.97"/><path class="cls-1" d="M85.78,77.33,114,13.76h4.08L89.79,77.33Z"/><path class="cls-1" d="M133.09,24.25V43.48c2-3.59,7.74-5.56,11.41-5.56,10.14,0,17.68,6.2,17.68,18.17,0,11.42-7.68,18.18-17.89,18.18-4.23,0-8.53-1.41-11.2-5.57l-.57,4.8h-8V24.25Zm.56,31.84a9.85,9.85,0,0,0,10.07,10.22c5.5,0,9.87-4.16,9.87-10.22,0-6.27-4.37-10.14-9.87-10.14A9.91,9.91,0,0,0,133.65,56.09Z"/><path class="cls-1" d="M177.33,38.76V56.94c0,5.28,2.89,9.3,8.38,9.3,5.29,0,8.88-4.44,8.88-9.72V38.76h8.52V73.57h-7.68l-.56-4.72c-3.59,3.52-6.9,5.21-11.76,5.21-8.32,0-14.38-6.27-14.38-17.05V38.76Z"/><path class="cls-1" d="M219.25,24.25V73.5h-8.53V24.25Z"/><path class="cls-1" d="M236.15,29c0,6.69-10.14,6.69-10.14,0S236.15,22.28,236.15,29Zm-9.37,9.65V73.5h8.6V38.62Z"/><path class="cls-1" d="M268.7,73.5V55.32c0-5.28-2.89-9.3-8.38-9.3-5.29,0-8.88,4.44-8.88,9.72V73.5h-8.52V38.69h7.68l.56,4.72c3.52-3.45,7-5.21,11.41-5.21,8.17,0,14.73,6.13,14.73,17V73.5Z"/><path class="cls-1" d="M320.76,24.25V73.5h-8l-.56-4.8c-2.68,4.16-7,5.57-11.2,5.57-10.22,0-17.9-6.76-17.9-18.18,0-12,7.54-18.17,17.69-18.17,3.66,0,9.37,2,11.41,5.56V24.25ZM291.67,56.09c0,6.06,4.37,10.22,9.86,10.22A9.84,9.84,0,0,0,311.6,56.09,9.91,9.91,0,0,0,301.53,46C296,46,291.67,49.82,291.67,56.09Z"/><path class="cls-1" d="M355.78,38.76H364V73.5h-8.1l-.42-5.08c-2,4.09-7.4,6.06-11.28,6.13-10.28.07-17.89-6.27-17.89-18.46,0-12,8-18.24,18.1-18.17,4.65,0,9.09,2.18,11.07,5.63ZM334.92,56.09c0,6.63,4.58,10.57,10.29,10.57,13.53,0,13.53-21.06,0-21.06C339.5,45.6,334.92,49.47,334.92,56.09Z"/><path class="cls-1" d="M353.13,10.28H350.6V9.81h5.6v.47h-2.53v6.51h-.54Z"/><path class="cls-1" d="M363.33,10.57l-2.68,4.1h-.18l-2.7-4.1v6.22h-.54v-7h.64l2.68,4.07L363.2,9.8h.66v7h-.53Z"/></svg>