<svg id="Layer_1" data-name="Layer 1" xmlns="http://www.w3.org/2000/svg" viewBox="0 0 4032 1296"><defs><style>.cls-1{font-size:126.55px;}.cls-1,.cls-10,.cls-11,.cls-6,.cls-9{fill:#fff;}.cls-1,.cls-10,.cls-7{font-family:NexaBold, Nexa Bold;}.cls-2{letter-spacing:-0.01em;}.cls-3{letter-spacing:0.02em;}.cls-4{letter-spacing:-0.02em;}.cls-5{letter-spacing:0.04em;}.cls-7{font-size:406.1px;}.cls-7,.cls-8{fill:#939598;}.cls-9{font-size:797.14px;}.cls-11,.cls-9{font-family:NexaLight, Nexa Light;}.cls-10{font-size:742.93px;}.cls-11{font-size:105.46px;}</style></defs><title>Main</title><text class="cls-1" transform="translate(2655.16 1014.71)">b<tspan class="cls-2" x="79.09" y="0">e</tspan><tspan x="151.6" y="0">han</tspan><tspan class="cls-3" x="377.11" y="0">c</tspan><tspan x="440" y="0">e.n</tspan><tspan class="cls-4" x="619.06" y="0">e</tspan><tspan x="690.18" y="0">t</tspan><tspan class="cls-5" x="740.67" y="0">/</tspan><tspan x="803.18" y="0">bulinda</tspan></text><path class="cls-6" d="M553.73,984.79C314,984.79,119,789.77,119,550.05S314,115.32,553.73,115.32s434.73,195,434.73,434.73S793.44,984.79,553.73,984.79Zm0-855.72c-232.13,0-421,188.85-421,421s188.85,421,421,421,421-188.85,421-421S785.86,129.07,553.73,129.07Zm0,774.55c-195,0-353.56-158.61-353.56-353.57s158.6-353.56,353.56-353.56S907.29,355.1,907.29,550.05,748.69,903.62,553.73,903.62Zm0-693.38c-187.37,0-339.82,152.44-339.82,339.81S366.36,889.87,553.73,889.87,893.55,737.43,893.55,550.05,741.11,210.24,553.73,210.24Z"/><text class="cls-7" transform="translate(313.55 693.52)">Be</text><rect class="cls-8" x="629.29" y="430.93" width="146.43" height="41.87"/><text class="cls-9" transform="translate(981.59 818.6)">/</text><text class="cls-10" transform="translate(1350.52 843.52)">bulinda</text><text class="cls-11" transform="translate(3763.64 245.55)">TM</text></svg>